<?xml version="1.0" encoding="iso-8859-1"?>
<!-- Uploaded to: SVG Repo, www.svgrepo.com, Generator: SVG Repo Mixer Tools -->
<svg height="800px" width="800px" version="1.1" id="Capa_1" xmlns="http://www.w3.org/2000/svg" xmlns:xlink="http://www.w3.org/1999/xlink" 
	 viewBox="0 0 334.502 334.502" xml:space="preserve">
<g>
	<path style="fill:#010002;" d="M162.96,149.514l-9.834,16.97c-2.437,4.204-0.473,7.609,4.384,7.609h1.061
		c4.857,0,8.795-3.938,8.795-8.795V150.7C167.371,145.843,165.397,145.315,162.96,149.514z"/>
	<path style="fill:#010002;" d="M167.251,0C74.88,0,0,74.88,0,167.251s74.88,167.251,167.251,167.251s167.251-74.88,167.251-167.251
		S259.623,0,167.251,0z M238.351,34.375l9.404,5.472l-17.177,29.491l-9.404-5.472L238.351,34.375z M153.654,16.796h27.195v44.997
		h-27.195V16.796z M96.163,34.375l17.171,29.491l-9.404,5.472L86.759,39.847L96.163,34.375z M16.192,153.654h45.182v27.195H16.192
		V153.654z M39.303,247.456l-5.439-9.42l29.605-17.106l5.439,9.42L39.303,247.456z M63.474,113.573L33.869,96.467l5.439-9.42
		l29.605,17.106L63.474,113.573z M96.163,300.128l-9.404-5.472l17.171-29.491l9.404,5.472L96.163,300.128z M121.982,201.675H88.39
		c-4.857,0-8.811-3.443-7.865-7.533c0.577-2.507,1.42-4.89,2.524-7.152c2.094-4.982,7.044-10.258,14.843-15.822
		c6.772-4.846,11.15-8.316,13.141-10.41c3.057-3.263,4.585-6.837,4.585-10.72c0-3.16-0.876-5.793-2.627-7.887
		s-4.259-3.144-7.528-3.144c-4.465,0-7.506,1.664-9.121,4.999c-0.538,1.12-0.952,2.622-1.235,4.514
		c-0.386,2.562-3.612,4.661-7.549,4.661s-7.125-3.595-6.249-7.903c0.582-2.866,1.436-5.368,2.567-7.506
		c3.922-7.457,10.884-11.183,20.897-11.183c7.914,0,14.207,2.192,18.879,6.57c4.678,4.378,7.016,10.182,7.016,17.394
		c0,5.532-1.653,10.443-4.955,14.74c-2.17,2.85-5.733,6.032-10.693,9.535l-5.891,4.177c-3.682,2.611-6.201,4.504-7.56,5.668
		c-0.68,0.582-1.305,1.213-1.876,1.893c-0.952,1.131,2.388,2.176,7.245,2.176h15.034c4.857,0,8.795,2.894,8.795,6.467
		C130.777,198.776,126.839,201.675,121.982,201.675z M180.849,317.707h-27.195v-44.997h27.195V317.707z M185.978,185.592
		c-2.333,0-4.226,3.601-4.226,8.039c0,4.438-3.22,8.039-7.19,8.039s-7.19-3.601-7.19-8.039c0-4.438-3.938-8.039-8.795-8.039h-11.993
		c-4.857,0-8.795-2.872-8.795-6.418c0-3.546,2.04-9.785,4.558-13.94l18.357-30.306c2.518-4.155,8.251-7.522,12.804-7.522
		s8.246,3.938,8.246,8.795v29.104c0,4.857,1.893,8.795,4.226,8.795c2.333,0,4.226,2.573,4.226,5.749
		C190.204,183.025,188.311,185.592,185.978,185.592z M238.351,300.128l-17.177-29.491l9.404-5.472l17.177,29.491L238.351,300.128z
		 M251.23,192.875c0,4.857-3.356,8.795-7.5,8.795c-4.145,0-7.5-3.938-7.5-8.795v-25.417c0-3.03-0.511-5.466-1.534-7.326
		c-1.333-2.616-3.856-3.922-7.571-3.922c-3.856,0-6.783,1.295-8.773,3.894c-1.996,2.6-2.991,6.304-2.991,11.117v21.647
		c0,4.857-3.291,8.795-7.343,8.795c-4.052,0-7.343-3.938-7.343-8.795v-58.116c0-4.857,3.291-8.795,7.343-8.795
		c4.052,0,7.343,3.938,7.343,8.795v9.208c0,4.857,1.175,6.804,3.204,4.857c1.294-1.24,2.676-2.203,4.161-2.888
		c2.79-1.289,5.727-1.931,8.806-1.931c3.454,0,6.592,0.604,9.415,1.806c2.823,1.207,5.14,3.046,6.957,5.526
		c1.545,2.094,2.48,4.259,2.823,6.472c0.343,2.214,0.517,5.836,0.517,10.856v24.215H251.23z M295.2,247.456l-29.605-17.106
		l5.439-9.42l29.605,17.106L295.2,247.456z M318.31,180.849h-45.182v-27.195h45.182V180.849z M300.639,96.473l-29.605,17.106
		l-5.439-9.42L295.2,87.052L300.639,96.473z"/>
</g>
</svg>