<?xml version="1.0" encoding="utf-8"?><!-- Uploaded to: SVG Repo, www.svgrepo.com, Generator: SVG Repo Mixer Tools -->
<svg width="800px" height="800px" viewBox="0 0 24 24" fill="none" xmlns="http://www.w3.org/2000/svg">
<path d="M16 2C16 1.44772 16.4477 1 17 1C17.5523 1 18 1.44772 18 2V8C18 8.55228 17.5523 9 17 9C16.4477 9 16 8.55228 16 8V2Z" fill="#0F0F0F"/>
<path fill-rule="evenodd" clip-rule="evenodd" d="M17.3545 22.2324C15.3344 21.7262 11.1989 20.2994 7.44977 16.5503C3.70066 12.8012 2.27382 8.66565 1.76769 6.64556C1.47683 5.48465 2.00059 4.3644 2.88871 3.73003L5.21696 2.067C6.57924 1.09394 8.47433 1.42413 9.42725 2.80057L10.893 4.91782C11.5152 5.81656 11.3006 7.04836 10.4111 7.68371L9.24236 8.51855C9.41925 9.19516 9.96941 10.5846 11.6924 12.3076C13.4154 14.0306 14.8049 14.5808 15.4815 14.7577L16.3163 13.5889C16.9517 12.6994 18.1835 12.4848 19.0822 13.107L21.1995 14.5728C22.5759 15.5257 22.9061 17.4208 21.9331 18.7831L20.27 21.1113C19.6356 21.9995 18.5154 22.5232 17.3545 22.2324ZM8.86399 15.1361C12.2734 18.5454 16.0358 19.8401 17.8406 20.2923C18.1043 20.3584 18.4232 20.2559 18.6425 19.9489L20.3056 17.6206C20.6299 17.1665 20.5199 16.5348 20.0611 16.2172L17.9438 14.7514L17.0479 16.0056C16.6818 16.5182 16.0047 16.9203 15.2163 16.7502C14.2323 16.5378 12.4133 15.8569 10.2782 13.7218C8.14311 11.5868 7.4622 9.76776 7.24989 8.78376C7.07978 7.99536 7.48183 7.31827 7.9944 6.95214L9.24866 6.05624L7.78287 3.93899C7.46523 3.48017 6.83353 3.37011 6.37944 3.69446L4.05118 5.3575C3.74415 5.57681 3.64164 5.89571 3.70772 6.15949C4.1599 7.96424 5.45461 11.7267 8.86399 15.1361Z" fill="#0F0F0F"/>
<path d="M21 1C20.4477 1 20 1.44772 20 2V8C20 8.55228 20.4477 9 21 9C21.5523 9 22 8.55228 22 8V2C22 1.44772 21.5523 1 21 1Z" fill="#0F0F0F"/>
</svg>